HIERARCHY
ROOT Hips
{
	OFFSET 47.614700 -2.726304 84.072098
	CHANNELS 6 Xposition Yposition Zposition Xrotation Yrotation Zrotation
	JOINT spine
	{
		OFFSET 0.000000 -0.359108 6.244797
		CHANNELS 3 Xrotation Yrotation Zrotation
		JOINT spine1
		{
			OFFSET 0.000000 -0.000001 9.069412
			CHANNELS 3 Xrotation Yrotation Zrotation
			JOINT spine2
			{
				OFFSET 0.000000 -0.000001 8.690140
				CHANNELS 3 Xrotation Yrotation Zrotation
				JOINT Neck
				{
					OFFSET 0.000000 -1.063724 22.311203
					CHANNELS 3 Xrotation Yrotation Zrotation
					JOINT Head
					{
						OFFSET 0.000000 -0.000001 6.740814
						CHANNELS 3 Xrotation Yrotation Zrotation
						End Site
						{
							OFFSET 0.000000 5.380967 16.316498
						}
					}
				}
				JOINT RightShoulder
				{
					OFFSET -3.659161 0.509513 9.384682
					CHANNELS 3 Xrotation Yrotation Zrotation
					JOINT RightArm
					{
						OFFSET 0.000000 -0.000002 12.308907
						CHANNELS 3 Xrotation Yrotation Zrotation
						JOINT RightArmRoll
						{
							OFFSET 0.000000 -0.000001 6.213745
							CHANNELS 3 Xrotation Yrotation Zrotation
							JOINT RightForeArm
							{
								OFFSET 0.000000 -0.000003 18.098495
								CHANNELS 3 Xrotation Yrotation Zrotation
								JOINT RightForeArmRoll
								{
									OFFSET 0.000000 -0.000001 6.972794
									CHANNELS 3 Xrotation Yrotation Zrotation
									JOINT RightHand
									{
										OFFSET 0.000000 -0.000002 13.992905
										CHANNELS 3 Xrotation Yrotation Zrotation
										End Site
										{
											OFFSET 0.000000 0.000000 0.100006
										}
									}
								}
							}
						}
					}
				}
				JOINT LeftShoulder
				{
					OFFSET 3.659161 0.509513 9.384682
					CHANNELS 3 Xrotation Yrotation Zrotation
					JOINT LeftArm
					{
						OFFSET 0.000000 -0.000002 12.308907
						CHANNELS 3 Xrotation Yrotation Zrotation
						JOINT LeftArmRoll
						{
							OFFSET 0.000000 -0.000001 6.213745
							CHANNELS 3 Xrotation Yrotation Zrotation
							JOINT LeftForeArm
							{
								OFFSET 0.000000 -0.000003 18.098495
								CHANNELS 3 Xrotation Yrotation Zrotation
								JOINT LeftForeArmRoll
								{
									OFFSET 0.000000 -0.000001 6.972794
									CHANNELS 3 Xrotation Yrotation Zrotation
									JOINT LeftHand
									{
										OFFSET 0.000000 -0.000002 13.992905
										CHANNELS 3 Xrotation Yrotation Zrotation
										End Site
										{
											OFFSET 0.000000 0.000000 0.100006
										}
									}
								}
							}
						}
					}
				}
			}
		}
	}
	JOINT RightUpLeg
	{
		OFFSET -5.535160 0.851454 -1.014999
		CHANNELS 3 Xrotation Yrotation Zrotation
		JOINT RightUpLegRoll
		{
			OFFSET 0.000000 -0.000003 16.407501
			CHANNELS 3 Xrotation Yrotation Zrotation
			JOINT RightLeg
			{
				OFFSET 0.000000 0.000003 -20.318100
				CHANNELS 3 Xrotation Yrotation Zrotation
				JOINT RightLegRoll
				{
					OFFSET 0.000000 -0.000003 20.384598
					CHANNELS 3 Xrotation Yrotation Zrotation
					JOINT RightFoot
					{
						OFFSET 0.000000 -0.000003 16.966797
						CHANNELS 3 Xrotation Yrotation Zrotation
						JOINT RightToeBase
						{
							OFFSET 0.000000 -0.000002 14.183395
							CHANNELS 3 Xrotation Yrotation Zrotation
							End Site
							{
								OFFSET 0.006012 0.791745 6.868896
							}
						}
					}
				}
			}
		}
	}
	JOINT LeftUpLeg
	{
		OFFSET 5.535160 0.851454 -1.014999
		CHANNELS 3 Xrotation Yrotation Zrotation
		JOINT LeftUpLegRoll
		{
			OFFSET 0.000000 -0.000003 16.407600
			CHANNELS 3 Xrotation Yrotation Zrotation
			JOINT LeftLeg
			{
				OFFSET 0.000000 -0.000003 20.318100
				CHANNELS 3 Xrotation Yrotation Zrotation
				JOINT LeftLegRoll
				{
					OFFSET 0.000000 -0.000003 20.573097
					CHANNELS 3 Xrotation Yrotation Zrotation
					JOINT LeftFoot
					{
						OFFSET 0.000000 -0.000003 16.778305
						CHANNELS 3 Xrotation Yrotation Zrotation
						JOINT LeftToeBase
						{
							OFFSET 0.000000 -0.000002 14.183395
							CHANNELS 3 Xrotation Yrotation Zrotation
							End Site
							{
								OFFSET -0.026943 0.791745 6.868896
							}
						}
					}
				}
			}
		}
	}
}
MOTION
Frames: 11
Frame Time: 0.041667
45.363094 0.382439 90.407990 7.726632 0.093243 -1.527041 -2.108402 -0.024844 0.130038 -0.213935 -0.053192 0.259380 1.431132 -0.050082 0.259999 -6.142412 -3.312198 -0.895721 3.729341 0.827339 -0.101484 -10.227655 -62.428585 -12.227796 -20.387457 -112.677562 -13.098010 0.000000 0.000002 0.000010 16.845449 -11.403132 1.092788 -0.000000 0.000000 -3.000000 -5.000162 -7.998734 0.000149 -16.965864 56.947979 20.013634 -18.265347 118.069956 8.948556 -0.000000 0.000000 -0.000000 23.258085 7.033208 -0.819471 -0.000009 -0.000007 3.000010 -5.000261 7.999450 -0.000111 -17.299640 -177.494541 -2.318388 -179.999991 0.000005 -0.888001 159.426000 1.531709 -0.865153 -0.000004 -0.000004 0.061277 67.272965 6.867414 2.309755 24.975502 -7.353354 -0.335438 -16.618236 172.774416 -1.399605 -0.000005 -0.000005 -1.006340 -25.748148 -0.187794 1.159316 -0.000004 0.000006 -0.318359 68.770552 -6.799565 -2.382860 24.711252 7.349739 0.523569 
45.372295 0.406541 90.212494 7.725250 0.092968 -1.519471 -2.104160 -0.023413 0.130229 -0.205457 -0.050327 0.259802 1.439610 -0.047211 0.260387 -6.081673 -3.310933 -0.871198 3.687237 0.796394 -0.074844 -10.034922 -62.403873 -12.002414 -20.411120 -112.653452 -13.181098 0.000000 0.000001 0.000011 16.891123 -11.444627 1.105689 -0.000002 0.000001 -3.000000 -5.000160 -7.998732 0.000148 -16.865265 56.980515 19.893080 -18.510429 117.980071 9.280496 0.000000 0.000001 0.000000 23.311326 7.119408 -0.839941 -0.000006 -0.000007 3.000010 -5.000259 7.999450 -0.000110 -17.356863 -177.497232 -2.316030 -179.999991 0.000005 -0.885994 159.292497 1.526622 -0.864995 -0.000005 -0.000004 0.054244 67.199581 6.870818 2.305724 24.897875 -7.352532 -0.389455 -16.787278 172.753898 -1.414699 -0.000004 -0.000004 -1.006530 -26.134151 -0.189777 1.167449 -0.000005 0.000005 -0.325191 68.789854 -6.798273 -2.385031 24.591135 7.347655 0.607860 
45.339695 0.440439 90.002403 7.724832 0.093376 -1.511986 -2.100070 -0.022179 0.130566 -0.197286 -0.047858 0.260510 1.447780 -0.044734 0.261064 -6.021364 -3.308239 -0.846871 3.646956 0.764038 -0.048625 -9.845745 -62.376935 -11.781086 -20.436057 -112.631609 -13.266218 0.000000 0.000001 0.000011 16.935516 -11.486552 1.118642 -0.000001 0.000000 -2.999999 -5.000158 -7.998732 0.000149 -16.766467 57.012480 19.774736 -18.761012 117.891251 9.618229 0.000000 0.000000 0.000000 23.363506 7.204976 -0.860372 -0.000007 -0.000007 3.000010 -5.000261 7.999450 -0.000108 -17.420367 -177.501918 -2.314330 -179.999991 0.000005 -0.883999 159.138285 1.522255 -0.865961 -0.000005 -0.000004 0.048418 67.135459 6.873644 2.302403 24.837831 -7.351794 -0.431286 -16.960202 172.732670 -1.429885 -0.000004 -0.000005 -1.006800 -26.531460 -0.193271 1.175576 -0.000002 0.000006 -0.332170 68.808917 -6.796962 -2.387414 24.498000 7.345832 0.673156 
45.351795 0.450111 89.796303 7.725732 0.094719 -1.504390 -2.096212 -0.021191 0.131096 -0.189561 -0.045888 0.261599 1.455510 -0.042751 0.262129 -5.961410 -3.304622 -0.823134 3.608126 0.730865 -0.023159 -9.662345 -62.348344 -11.566406 -20.465554 -112.609308 -13.356659 0.000000 0.000001 0.000011 16.978324 -11.528930 1.131638 -0.000002 -0.000000 -3.000000 -5.000161 -7.998733 0.000148 -16.669536 57.043906 19.658662 -19.016420 117.805464 9.960849 -0.000000 0.000000 -0.000000 23.414105 7.289720 -0.880676 -0.000005 -0.000008 3.000010 -5.000261 7.999449 -0.000110 -17.491923 -177.510538 -2.313104 -179.999991 0.000005 -0.882005 158.957517 1.521362 -0.865799 -0.000004 -0.000004 0.044296 67.084226 6.875671 2.300218 24.801749 -7.351316 -0.456389 -17.137515 172.710772 -1.445358 -0.000004 -0.000005 -1.007190 -26.941874 -0.198446 1.183681 -0.000003 0.000005 -0.339304 68.827577 -6.795651 -2.389721 24.442196 7.344641 0.712317 
45.325195 0.478573 89.555992 7.728301 0.097252 -1.496478 -2.092640 -0.020499 0.131867 -0.182427 -0.044518 0.263162 1.462641 -0.041362 0.263676 -5.901747 -3.300583 -0.800381 3.570378 0.697469 0.001220 -9.486914 -62.318482 -11.360930 -20.499611 -112.587623 -13.452178 0.000000 0.000002 0.000011 17.019146 -11.571790 1.144663 0.000000 0.000001 -2.999999 -5.000159 -7.998733 0.000148 -16.574598 57.074772 19.545015 -19.277084 117.722859 10.308679 0.000000 0.000000 -0.000002 23.463001 7.373433 -0.900823 -0.000008 -0.000007 3.000010 -5.000260 7.999449 -0.000110 -17.573447 -177.522135 -2.313078 -179.999991 0.000005 -0.879997 158.744511 1.523836 -0.866340 -0.000004 -0.000004 0.042380 67.049945 6.876630 2.299056 24.796286 -7.351233 -0.460201 -17.319816 172.688260 -1.461316 -0.000004 -0.000004 -1.007720 -27.366787 -0.205470 1.191776 -0.000004 0.000005 -0.346602 68.845397 -6.794349 -2.392182 24.433697 7.344452 0.718267 
45.322697 0.493448 89.341492 7.732884 0.101227 -1.488045 -2.089442 -0.020154 0.132928 -0.176021 -0.043848 0.265293 1.469051 -0.040667 0.265799 -5.842283 -3.296616 -0.779001 3.533369 0.664442 0.024180 -9.321531 -62.287630 -11.167094 -20.539024 -112.566640 -13.553383 0.000000 0.000002 0.000011 17.057465 -11.615160 1.157665 -0.000001 -0.000000 -3.000001 -5.000158 -7.998734 0.000149 -16.481626 57.104862 19.433758 -19.544197 117.642550 10.662912 0.000000 -0.000000 0.000001 23.509784 7.455945 -0.920770 -0.000009 -0.000006 3.000012 -5.000261 7.999451 -0.000109 -17.666819 -177.538678 -2.314069 -179.999991 0.000005 -0.878999 158.493338 1.529588 -0.865362 -0.000004 -0.000004 0.043169 67.036442 6.876250 2.299624 24.828038 -7.351657 -0.438135 -17.507725 172.665120 -1.477953 -0.000004 -0.000004 -1.008450 -27.807715 -0.214516 1.199842 -0.000003 0.000006 -0.354074 68.862165 -6.793042 -2.394609 24.482741 7.345515 0.683846 
45.293995 0.526294 89.102196 7.739845 0.106900 -1.478899 -2.086680 -0.020205 0.134325 -0.170488 -0.043981 0.268086 1.474581 -0.040767 0.268594 -5.782965 -3.293222 -0.759384 3.496716 0.632378 0.045390 -9.168355 -62.256280 -10.987430 -20.586294 -112.544606 -13.662736 0.000000 0.000001 0.000011 17.092869 -11.658975 1.170573 -0.000004 0.000000 -2.999999 -5.000159 -7.998733 0.000149 -16.390707 57.134184 19.325008 -19.816973 117.566571 11.022516 0.000000 -0.000000 0.000000 23.554239 7.537061 -0.940468 -0.000008 -0.000008 3.000009 -5.000260 7.999450 -0.000109 -17.773933 -177.560138 -2.316484 -179.999991 0.000005 -0.878002 158.198219 1.540392 -0.864928 -0.000005 -0.000004 0.047163 67.047418 6.874349 2.301851 24.903336 -7.352594 -0.385651 -17.701673 172.640463 -1.495202 -0.000004 -0.000005 -1.009410 -28.266434 -0.225757 1.207863 -0.000003 0.000006 -0.361728 68.877540 -6.791718 -2.397215 24.599534 7.347817 0.601933 
45.297897 0.524702 88.864494 7.749526 0.114525 -1.468835 -2.084420 -0.020703 0.136105 -0.165969 -0.045019 0.271636 1.479101 -0.041761 0.272155 -5.723702 -3.290909 -0.741917 3.460054 0.601871 0.064519 -9.029560 -62.224956 -10.824446 -20.642259 -112.521643 -13.780882 0.000000 0.000001 0.000011 17.125065 -11.703449 1.183434 -0.000002 0.000000 -3.000001 -5.000157 -7.998733 0.000149 -16.301889 57.162560 19.218798 -20.097159 117.493119 11.389320 -0.000000 -0.000001 0.000000 23.595934 7.616578 -0.959845 -0.000006 -0.000007 3.000009 -5.000262 7.999450 -0.000110 -17.896569 -177.588470 -2.320116 -179.999991 0.000005 -0.878002 157.853485 1.556121 -0.862754 -0.000003 -0.000004 0.054864 67.086876 6.870675 2.306236 25.028960 -7.353856 -0.298175 -17.902378 172.614330 -1.513223 -0.000004 -0.000005 -1.010630 -28.744366 -0.239369 1.215788 -0.000006 0.000005 -0.369572 68.891276 -6.790462 -2.399738 24.794160 7.350993 0.465402 
45.267097 0.547349 88.561707 7.762291 0.124358 -1.457661 -2.082738 -0.021698 0.138318 -0.162605 -0.047061 0.276034 1.482460 -0.043752 0.276578 -5.664429 -3.290172 -0.726982 3.423033 0.573516 0.081237 -8.907226 -62.194152 -10.680583 -20.707762 -112.497846 -13.908485 0.000000 0.000001 0.000011 17.153634 -11.748512 1.196212 -0.000001 0.000001 -3.000000 -5.000160 -7.998732 0.000149 -16.215214 57.189939 19.115193 -20.383291 117.425131 11.761500 -0.000000 0.000000 0.000000 23.634669 7.694318 -0.978849 -0.000007 -0.000007 3.000011 -5.000260 7.999449 -0.000109 -18.036747 -177.621747 -2.325956 -179.999991 0.000005 -0.878999 157.453059 1.578447 -0.860778 -0.000004 -0.000004 0.066770 67.158648 6.865013 2.313005 25.211371 -7.355093 -0.171143 -18.110340 172.586764 -1.532220 -0.000003 -0.000004 -1.012150 -29.243219 -0.255525 1.223599 -0.000003 0.000006 -0.377616 68.902989 -6.789182 -2.402479 25.076655 7.354133 0.267126 
45.275597 0.548935 88.332092 7.778482 0.136654 -1.445177 -2.081711 -0.023239 0.141009 -0.160538 -0.050212 0.281377 1.484530 -0.046837 0.281959 -5.605059 -3.291532 -0.714963 3.385278 0.547906 0.095215 -8.803400 -62.164168 -10.558252 -20.785374 -112.471502 -14.048087 0.000000 0.000001 0.000011 17.178073 -11.794297 1.208861 -0.000001 0.000000 -3.000000 -5.000162 -7.998731 0.000149 -16.130817 57.216351 19.014331 -20.677165 117.360887 12.140945 -0.000000 -0.000001 0.000001 23.670009 7.770092 -0.997428 -0.000006 -0.000008 3.000010 -5.000263 7.999450 -0.000109 -18.196245 -177.662878 -2.333447 -179.999991 0.000005 -0.879997 156.991324 1.607171 -0.856631 -0.000005 -0.000004 0.083382 67.266476 6.857219 2.322402 25.456865 -7.355620 -0.000013 -18.326077 172.557804 -1.552421 -0.000004 -0.000005 -1.014020 -29.764376 -0.274401 1.231227 -0.000005 0.000005 -0.385869 68.912593 -6.787910 -2.405152 25.456950 7.355614 0.000001 
45.243694 0.571865 88.086594 7.798436 0.150867 -1.431942 -2.081501 -0.025362 0.144249 -0.160095 -0.054539 0.287803 1.484970 -0.051087 0.288435 -5.547191 -3.291319 -0.705266 3.351308 0.521627 0.106495 -8.715798 -62.130891 -10.454493 -20.865193 -112.447563 -14.189402 0.000000 0.000002 0.000011 17.197918 -11.839873 1.221131 -0.000002 0.000001 -2.999999 -5.000161 -7.998733 0.000149 -16.049322 57.242921 18.917029 -20.979758 117.299538 12.528775 0.000000 0.000000 0.000001 23.701368 7.844345 -1.015646 -0.000007 -0.000008 3.000009 -5.000257 7.999449 -0.000109 -18.375960 -177.711810 -2.342727 -179.999991 0.000005 -0.882005 156.463228 1.643917 -0.852086 -0.000005 -0.000004 0.102994 67.392835 6.849312 2.333843 25.797114 -7.354212 0.233118 -18.547573 172.527382 -1.577191 -0.000004 -0.000005 -1.016360 -30.305932 -0.292252 1.239562 -0.000004 0.000005 -0.390684 68.894868 -6.789486 -2.404734 25.979955 7.352563 -0.359792 
